<svg width="618" height="168" viewBox="0 0 618 168" fill="none" xmlns="http://www.w3.org/2000/svg">
<path d="M77.568 38.4C79.616 38.4 81.28 39.0827 82.56 40.448C83.84 41.8133 84.48 43.52 84.48 45.568V120.192C84.48 122.411 83.712 124.288 82.176 125.824C80.7253 127.275 78.8907 128 76.672 128C75.5627 128 74.4107 127.829 73.216 127.488C72.1067 127.061 71.2533 126.507 70.656 125.824L20.352 61.952L23.68 59.904V120.832C23.68 122.88 22.9973 124.587 21.632 125.952C20.352 127.317 18.6453 128 16.512 128C14.464 128 12.8 127.317 11.52 125.952C10.24 124.587 9.6 122.88 9.6 120.832V46.208C9.6 43.9893 10.3253 42.1547 11.776 40.704C13.312 39.168 15.1893 38.4 17.408 38.4C18.6027 38.4 19.84 38.656 21.12 39.168C22.4 39.5947 23.3387 40.2773 23.936 41.216L72.704 103.424L70.528 104.96V45.568C70.528 43.52 71.168 41.8133 72.448 40.448C73.728 39.0827 75.4347 38.4 77.568 38.4Z" fill="#6777EF"/>
<path d="M148.136 59.52C150.355 59.52 152.189 60.288 153.64 61.824C155.091 63.2747 155.816 65.1093 155.816 67.328V99.84C155.816 108.885 153.299 116.053 148.264 121.344C143.229 126.635 135.976 129.28 126.504 129.28C117.032 129.28 109.779 126.635 104.744 121.344C99.7947 116.053 97.32 108.885 97.32 99.84V67.328C97.32 65.1093 98.0453 63.2747 99.496 61.824C100.947 60.288 102.781 59.52 105 59.52C107.219 59.52 109.053 60.288 110.504 61.824C111.955 63.2747 112.68 65.1093 112.68 67.328V99.84C112.68 105.045 113.832 108.928 116.136 111.488C118.44 113.963 121.896 115.2 126.504 115.2C131.197 115.2 134.696 113.963 137 111.488C139.304 108.928 140.456 105.045 140.456 99.84V67.328C140.456 65.1093 141.181 63.2747 142.632 61.824C144.083 60.288 145.917 59.52 148.136 59.52ZM173.213 60.8H203.549C205.597 60.8 207.304 61.4827 208.669 62.848C210.034 64.2133 210.717 65.92 210.717 67.968C210.717 69.9307 210.034 71.5947 208.669 72.96C207.304 74.24 205.597 74.88 203.549 74.88H173.213C171.165 74.88 169.458 74.1973 168.093 72.832C166.728 71.4667 166.045 69.76 166.045 67.712C166.045 65.7493 166.728 64.128 168.093 62.848C169.458 61.4827 171.165 60.8 173.213 60.8ZM186.909 44.8C189.128 44.8 190.92 45.568 192.285 47.104C193.736 48.5547 194.461 50.3893 194.461 52.608V109.568C194.461 110.763 194.674 111.744 195.101 112.512C195.613 113.28 196.253 113.835 197.021 114.176C197.874 114.517 198.77 114.688 199.709 114.688C200.733 114.688 201.672 114.517 202.525 114.176C203.378 113.749 204.36 113.536 205.469 113.536C206.664 113.536 207.73 114.091 208.669 115.2C209.693 116.309 210.205 117.845 210.205 119.808C210.205 122.197 208.882 124.16 206.237 125.696C203.677 127.232 200.904 128 197.917 128C196.125 128 194.12 127.872 191.901 127.616C189.768 127.275 187.72 126.549 185.757 125.44C183.88 124.245 182.301 122.453 181.021 120.064C179.741 117.675 179.101 114.389 179.101 110.208V52.608C179.101 50.3893 179.826 48.5547 181.277 47.104C182.813 45.568 184.69 44.8 186.909 44.8ZM232.5 128C230.281 128 228.447 127.275 226.996 125.824C225.545 124.288 224.82 122.411 224.82 120.192V67.328C224.82 65.1093 225.545 63.2747 226.996 61.824C228.447 60.288 230.281 59.52 232.5 59.52C234.719 59.52 236.553 60.288 238.004 61.824C239.455 63.2747 240.18 65.1093 240.18 67.328V79.36L239.284 70.784C240.223 68.736 241.417 66.944 242.868 65.408C244.404 63.7867 246.111 62.464 247.988 61.44C249.865 60.3307 251.871 59.52 254.004 59.008C256.137 58.496 258.271 58.24 260.404 58.24C262.964 58.24 265.097 58.9653 266.804 60.416C268.596 61.8667 269.492 63.5733 269.492 65.536C269.492 68.352 268.767 70.4 267.316 71.68C265.865 72.8747 264.287 73.472 262.58 73.472C260.959 73.472 259.465 73.1733 258.1 72.576C256.82 71.9787 255.327 71.68 253.62 71.68C252.084 71.68 250.505 72.064 248.884 72.832C247.348 73.5147 245.897 74.624 244.532 76.16C243.252 77.696 242.185 79.616 241.332 81.92C240.564 84.1387 240.18 86.784 240.18 89.856V120.192C240.18 122.411 239.455 124.288 238.004 125.824C236.553 127.275 234.719 128 232.5 128ZM294.784 120.192C294.784 122.411 294.059 124.288 292.608 125.824C291.157 127.275 289.323 128 287.104 128C284.885 128 283.051 127.275 281.6 125.824C280.149 124.288 279.424 122.411 279.424 120.192V67.328C279.424 65.1093 280.149 63.2747 281.6 61.824C283.051 60.288 284.885 59.52 287.104 59.52C289.323 59.52 291.157 60.288 292.608 61.824C294.059 63.2747 294.784 65.1093 294.784 67.328V120.192ZM286.976 51.2C284.075 51.2 282.027 50.7307 280.832 49.792C279.637 48.8533 279.04 47.1893 279.04 44.8V42.368C279.04 39.8933 279.68 38.2293 280.96 37.376C282.325 36.4373 284.373 35.968 287.104 35.968C290.091 35.968 292.181 36.4373 293.376 37.376C294.571 38.3147 295.168 39.9787 295.168 42.368V44.8C295.168 47.2747 294.528 48.9813 293.248 49.92C291.968 50.7733 289.877 51.2 286.976 51.2ZM366.634 58.24C368.853 58.24 370.687 58.9653 372.138 60.416C373.589 61.8667 374.314 63.744 374.314 66.048V120.192C374.314 122.411 373.589 124.288 372.138 125.824C370.687 127.275 368.853 128 366.634 128C364.415 128 362.581 127.275 361.13 125.824C359.679 124.288 358.954 122.411 358.954 120.192V113.92L361.77 115.072C361.77 116.181 361.173 117.547 359.978 119.168C358.783 120.704 357.162 122.24 355.114 123.776C353.066 125.312 350.634 126.635 347.818 127.744C345.087 128.768 342.101 129.28 338.858 129.28C332.97 129.28 327.637 127.787 322.858 124.8C318.079 121.728 314.282 117.547 311.466 112.256C308.735 106.88 307.37 100.736 307.37 93.824C307.37 86.8267 308.735 80.6827 311.466 75.392C314.282 70.016 318.037 65.8347 322.73 62.848C327.423 59.776 332.629 58.24 338.346 58.24C342.015 58.24 345.386 58.7947 348.458 59.904C351.53 61.0133 354.175 62.4213 356.394 64.128C358.698 65.8347 360.447 67.584 361.642 69.376C362.922 71.0827 363.562 72.5333 363.562 73.728L358.954 75.392V66.048C358.954 63.8293 359.679 61.9947 361.13 60.544C362.581 59.008 364.415 58.24 366.634 58.24ZM340.778 115.2C344.533 115.2 347.818 114.261 350.634 112.384C353.45 110.507 355.626 107.947 357.162 104.704C358.783 101.461 359.594 97.8347 359.594 93.824C359.594 89.728 358.783 86.0587 357.162 82.816C355.626 79.5733 353.45 77.0133 350.634 75.136C347.818 73.2587 344.533 72.32 340.778 72.32C337.109 72.32 333.866 73.2587 331.05 75.136C328.234 77.0133 326.015 79.5733 324.394 82.816C322.858 86.0587 322.09 89.728 322.09 93.824C322.09 97.8347 322.858 101.461 324.394 104.704C326.015 107.947 328.234 110.507 331.05 112.384C333.866 114.261 337.109 115.2 340.778 115.2ZM398.625 128C396.406 128 394.572 127.275 393.121 125.824C391.67 124.288 390.945 122.411 390.945 120.192V67.328C390.945 65.1093 391.67 63.2747 393.121 61.824C394.572 60.288 396.406 59.52 398.625 59.52C400.844 59.52 402.678 60.288 404.129 61.824C405.58 63.2747 406.305 65.1093 406.305 67.328V79.36L405.409 70.784C406.348 68.736 407.542 66.944 408.993 65.408C410.529 63.7867 412.236 62.464 414.113 61.44C415.99 60.3307 417.996 59.52 420.129 59.008C422.262 58.496 424.396 58.24 426.529 58.24C429.089 58.24 431.222 58.9653 432.929 60.416C434.721 61.8667 435.617 63.5733 435.617 65.536C435.617 68.352 434.892 70.4 433.441 71.68C431.99 72.8747 430.412 73.472 428.705 73.472C427.084 73.472 425.59 73.1733 424.225 72.576C422.945 71.9787 421.452 71.68 419.745 71.68C418.209 71.68 416.63 72.064 415.009 72.832C413.473 73.5147 412.022 74.624 410.657 76.16C409.377 77.696 408.31 79.616 407.457 81.92C406.689 84.1387 406.305 86.784 406.305 89.856V120.192C406.305 122.411 405.58 124.288 404.129 125.824C402.678 127.275 400.844 128 398.625 128ZM497.261 59.52C499.48 59.52 501.314 60.288 502.765 61.824C504.216 63.2747 504.941 65.1093 504.941 67.328V121.728C504.941 129.579 503.448 135.808 500.461 140.416C497.56 145.109 493.634 148.48 488.685 150.528C483.736 152.576 478.189 153.6 472.045 153.6C469.314 153.6 466.413 153.387 463.341 152.96C460.269 152.533 457.752 151.893 455.789 151.04C453.229 149.931 451.437 148.523 450.413 146.816C449.474 145.195 449.304 143.445 449.901 141.568C450.669 139.093 451.906 137.387 453.613 136.448C455.32 135.595 457.112 135.509 458.989 136.192C460.354 136.619 462.146 137.259 464.365 138.112C466.584 139.051 469.144 139.52 472.045 139.52C475.97 139.52 479.213 138.965 481.773 137.856C484.418 136.832 486.381 135.04 487.661 132.48C489.026 130.005 489.709 126.592 489.709 122.24V113.664L492.397 116.736C490.946 119.552 489.112 121.899 486.893 123.776C484.76 125.568 482.2 126.933 479.213 127.872C476.226 128.811 472.813 129.28 468.973 129.28C464.45 129.28 460.482 128.256 457.069 126.208C453.741 124.075 451.138 121.173 449.261 117.504C447.384 113.749 446.445 109.483 446.445 104.704V67.328C446.445 65.1093 447.17 63.2747 448.621 61.824C450.072 60.288 451.906 59.52 454.125 59.52C456.344 59.52 458.178 60.288 459.629 61.824C461.08 63.2747 461.805 65.1093 461.805 67.328V100.096C461.805 105.643 463 109.568 465.389 111.872C467.864 114.091 471.277 115.2 475.629 115.2C478.616 115.2 481.133 114.645 483.181 113.536C485.229 112.341 486.808 110.635 487.917 108.416C489.026 106.112 489.581 103.339 489.581 100.096V67.328C489.581 65.1093 490.306 63.2747 491.757 61.824C493.208 60.288 495.042 59.52 497.261 59.52Z" fill="white"/>
</svg>
